<?xml version="1.0" encoding="UTF-8"?>
<svg id="Layer_2" xmlns="http://www.w3.org/2000/svg" viewBox="0 0 1491.73 797.77">
  <defs>
    <style>
      .cls-1 {
        fill: #4d648d;
      }

      .cls-2 {
        fill: #98b2dd;
      }
    </style>
  </defs>
  <g id="Layer_2-2" data-name="Layer_2">
    <g>
      <path class="cls-2" d="M188.19,0c-5.21,63.61-82.29,118.12-179.98,124.56-2.75.18-5.48.32-8.21.42v547.82c2.73.1,5.45.24,8.21.42,97.69,6.44,174.76,60.95,179.98,124.56h431.85L248.88,0h-60.69Z"/>
      <path class="cls-2" d="M1483.53,124.56c-97.69-6.44-174.76-60.95-179.98-124.56h-60.69l-371.16,797.77h431.85c5.21-63.61,82.29-118.12,179.98-124.56,2.75-.18,5.48-.32,8.21-.42V124.98c-2.73-.1-5.45-.24-8.21-.42Z"/>
      <path class="cls-1" d="M872.03,369.19L1035.96,0H455.78l163.93,369.19c51.12,114.59,92.31,210.46,125.16,310.65v.82h2v-.82c32.85-100.19,74.04-196.06,125.16-310.65Z"/>
    </g>
  </g>
</svg>